<svg xmlns="http://www.w3.org/2000/svg" xmlns:xlink="http://www.w3.org/1999/xlink" width="344" zoomAndPan="magnify" viewBox="0 0 258 84.749999" height="113" preserveAspectRatio="xMidYMid meet" version="1.0"><defs><g/><clipPath id="7d2a8c6bba"><path d="M 227 30 L 256.871094 30 L 256.871094 72 L 227 72 Z M 227 30 " clip-rule="nonzero"/></clipPath></defs><g fill="#545454" fill-opacity="1"><g transform="translate(0.0449233, 59.603234)"><g><path d="M 3.21875 0.5 L 3.21875 -37.765625 L 16.265625 -38.921875 C 16.460938 -38.953125 16.648438 -38.96875 16.828125 -38.96875 C 17.015625 -38.96875 17.210938 -38.96875 17.421875 -38.96875 C 18.765625 -38.96875 20.054688 -38.765625 21.296875 -38.359375 C 22.535156 -37.960938 23.84375 -37.441406 25.21875 -36.796875 C 27.800781 -35.660156 29.765625 -34.125 31.109375 -32.1875 C 32.453125 -30.257812 33.125 -27.753906 33.125 -24.671875 C 33.125 -20.441406 32.050781 -17.082031 29.90625 -14.59375 C 27.757812 -12.113281 24.835938 -10.722656 21.140625 -10.421875 L 16.921875 -10.0625 L 16.921875 2.265625 L 8.25 3.015625 Z M 16.0625 -13.4375 C 19.65625 -13.738281 22.472656 -15.085938 24.515625 -17.484375 C 26.566406 -19.890625 27.59375 -23.125 27.59375 -27.1875 C 27.59375 -29.4375 27.1875 -31.398438 26.375 -33.078125 C 25.570312 -34.753906 24.421875 -36.070312 22.921875 -37.03125 C 21.429688 -37.988281 19.628906 -38.46875 17.515625 -38.46875 C 17.316406 -38.46875 17.113281 -38.46875 16.90625 -38.46875 C 16.707031 -38.46875 16.507812 -38.445312 16.3125 -38.40625 L 3.71875 -37.3125 L 3.71875 0 L 11.375 -0.65625 L 11.375 -13.03125 Z M 11.375 -30.703125 L 14.796875 -31.015625 C 14.929688 -31.015625 15.054688 -31.019531 15.171875 -31.03125 C 15.296875 -31.050781 15.40625 -31.0625 15.5 -31.0625 C 16.75 -31.0625 17.734375 -30.695312 18.453125 -29.96875 C 19.171875 -29.25 19.53125 -28.003906 19.53125 -26.234375 C 19.53125 -24.378906 19.078125 -23 18.171875 -22.09375 C 17.265625 -21.1875 16.140625 -20.671875 14.796875 -20.546875 L 11.375 -20.234375 Z M 16.921875 -21.703125 C 17.585938 -22.171875 18.101562 -22.753906 18.46875 -23.453125 C 18.84375 -24.160156 19.03125 -25.085938 19.03125 -26.234375 C 19.03125 -26.929688 18.976562 -27.484375 18.875 -27.890625 L 16.921875 -27.734375 Z M 16.921875 -21.703125 "/></g></g></g><g fill="#545454" fill-opacity="1"><g transform="translate(32.56648, 59.603234)"><g><path d="M 18.625 3.078125 C 18.289062 3.109375 17.945312 3.128906 17.59375 3.140625 C 17.238281 3.160156 16.878906 3.171875 16.515625 3.171875 C 13.492188 3.171875 10.820312 2.550781 8.5 1.3125 C 6.1875 0.0703125 4.382812 -1.742188 3.09375 -4.140625 C 1.800781 -6.546875 1.15625 -9.445312 1.15625 -12.84375 C 1.15625 -15.488281 1.597656 -17.941406 2.484375 -20.203125 C 3.378906 -22.472656 4.738281 -24.347656 6.5625 -25.828125 C 8.394531 -27.304688 10.703125 -28.160156 13.484375 -28.390625 C 13.753906 -28.421875 14.023438 -28.4375 14.296875 -28.4375 C 14.566406 -28.4375 14.835938 -28.4375 15.109375 -28.4375 C 17.253906 -28.4375 19.273438 -28.050781 21.171875 -27.28125 C 23.066406 -26.507812 24.742188 -25.421875 26.203125 -24.015625 C 27.660156 -22.609375 28.804688 -20.921875 29.640625 -18.953125 C 30.484375 -16.992188 30.90625 -14.820312 30.90625 -12.4375 C 30.90625 -9.78125 30.460938 -7.316406 29.578125 -5.046875 C 28.691406 -2.785156 27.34375 -0.9375 25.53125 0.5 C 23.71875 1.945312 21.414062 2.804688 18.625 3.078125 Z M 13.546875 0.046875 C 16.222656 -0.179688 18.4375 -1 20.1875 -2.40625 C 21.9375 -3.820312 23.238281 -5.628906 24.09375 -7.828125 C 24.945312 -10.023438 25.375 -12.398438 25.375 -14.953125 C 25.375 -17.398438 24.992188 -19.597656 24.234375 -21.546875 C 23.484375 -23.492188 22.328125 -25.046875 20.765625 -26.203125 C 19.203125 -27.359375 17.210938 -27.9375 14.796875 -27.9375 C 14.597656 -27.9375 14.394531 -27.9375 14.1875 -27.9375 C 13.988281 -27.9375 13.773438 -27.921875 13.546875 -27.890625 C 10.859375 -27.648438 8.632812 -26.816406 6.875 -25.390625 C 5.113281 -23.972656 3.800781 -22.171875 2.9375 -19.984375 C 2.082031 -17.804688 1.65625 -15.425781 1.65625 -12.84375 C 1.65625 -10.425781 2.039062 -8.234375 2.8125 -6.265625 C 3.59375 -4.304688 4.769531 -2.753906 6.34375 -1.609375 C 7.914062 -0.472656 9.894531 0.09375 12.28125 0.09375 C 12.488281 0.09375 12.691406 0.09375 12.890625 0.09375 C 13.085938 0.09375 13.304688 0.078125 13.546875 0.046875 Z M 13.09375 -6.890625 C 11.851562 -6.890625 10.882812 -7.425781 10.1875 -8.5 C 9.5 -9.582031 9.15625 -11.242188 9.15625 -13.484375 C 9.15625 -15.835938 9.539062 -17.609375 10.3125 -18.796875 C 11.09375 -19.992188 12.171875 -20.660156 13.546875 -20.796875 L 14 -20.796875 C 15.238281 -20.796875 16.191406 -20.265625 16.859375 -19.203125 C 17.535156 -18.148438 17.875 -16.515625 17.875 -14.296875 C 17.875 -11.953125 17.492188 -10.164062 16.734375 -8.9375 C 15.984375 -7.707031 14.921875 -7.023438 13.546875 -6.890625 Z M 15 -7.859375 C 16.582031 -8.722656 17.375 -10.867188 17.375 -14.296875 C 17.375 -15.472656 17.269531 -16.476562 17.0625 -17.3125 C 16.1875 -17.175781 15.570312 -16.578125 15.21875 -15.515625 C 14.875 -14.460938 14.703125 -12.945312 14.703125 -10.96875 C 14.703125 -9.757812 14.800781 -8.722656 15 -7.859375 Z M 15 -7.859375 "/></g></g></g><g fill="#545454" fill-opacity="1"><g transform="translate(62.419812, 59.603234)"><g><path d="M 29.5 -7.90625 C 28.925781 -4.613281 27.742188 -2.019531 25.953125 -0.125 C 24.160156 1.769531 21.71875 2.851562 18.625 3.125 C 18.289062 3.15625 17.953125 3.175781 17.609375 3.1875 C 17.273438 3.207031 16.941406 3.21875 16.609375 3.21875 C 14.523438 3.21875 12.550781 2.921875 10.6875 2.328125 C 8.832031 1.742188 7.191406 0.816406 5.765625 -0.453125 C 4.335938 -1.722656 3.210938 -3.382812 2.390625 -5.4375 C 1.566406 -7.488281 1.15625 -9.957031 1.15625 -12.84375 C 1.15625 -15.726562 1.648438 -18.300781 2.640625 -20.5625 C 3.628906 -22.832031 5.046875 -24.644531 6.890625 -26 C 8.742188 -27.363281 10.941406 -28.144531 13.484375 -28.34375 C 13.660156 -28.375 13.847656 -28.390625 14.046875 -28.390625 C 14.242188 -28.390625 14.445312 -28.390625 14.65625 -28.390625 C 16.226562 -28.390625 17.835938 -28.15625 19.484375 -27.6875 C 21.128906 -27.21875 22.671875 -26.53125 24.109375 -25.625 C 25.554688 -24.71875 26.765625 -23.597656 27.734375 -22.265625 C 28.710938 -20.941406 29.285156 -19.425781 29.453125 -17.71875 L 22.5 -14.453125 L 17.46875 -16.96875 C 17.46875 -17.03125 17.457031 -17.085938 17.4375 -17.140625 C 17.425781 -17.191406 17.421875 -17.234375 17.421875 -17.265625 C 16.484375 -17.035156 15.8125 -16.488281 15.40625 -15.625 C 15 -14.769531 14.796875 -13.21875 14.796875 -10.96875 C 14.796875 -10.332031 14.847656 -9.78125 14.953125 -9.3125 C 15.054688 -8.84375 15.191406 -8.390625 15.359375 -7.953125 C 15.921875 -8.253906 16.367188 -8.707031 16.703125 -9.3125 C 17.046875 -9.914062 17.316406 -10.789062 17.515625 -11.9375 L 24.46875 -10.421875 Z M 17.921875 -11.28125 C 17.679688 -9.90625 17.203125 -8.847656 16.484375 -8.109375 C 15.765625 -7.367188 14.898438 -6.945312 13.890625 -6.84375 C 13.796875 -6.84375 13.695312 -6.832031 13.59375 -6.8125 C 13.488281 -6.800781 13.40625 -6.796875 13.34375 -6.796875 C 11.894531 -6.796875 10.867188 -7.359375 10.265625 -8.484375 C 9.660156 -9.609375 9.359375 -11.273438 9.359375 -13.484375 C 9.359375 -15.804688 9.753906 -17.550781 10.546875 -18.71875 C 11.335938 -19.894531 12.40625 -20.550781 13.75 -20.6875 C 13.84375 -20.6875 13.941406 -20.691406 14.046875 -20.703125 C 14.148438 -20.722656 14.234375 -20.734375 14.296875 -20.734375 C 16.242188 -20.734375 17.421875 -19.710938 17.828125 -17.671875 L 23.8125 -20.484375 C 23.375 -22.671875 22.347656 -24.453125 20.734375 -25.828125 C 19.128906 -27.203125 17.082031 -27.890625 14.59375 -27.890625 C 14.425781 -27.890625 14.25 -27.890625 14.0625 -27.890625 C 13.882812 -27.890625 13.710938 -27.875 13.546875 -27.84375 C 11.054688 -27.632812 8.921875 -26.867188 7.140625 -25.546875 C 5.367188 -24.222656 4.007812 -22.46875 3.0625 -20.28125 C 2.125 -18.101562 1.65625 -15.625 1.65625 -12.84375 C 1.65625 -9.78125 2.109375 -7.289062 3.015625 -5.375 C 3.921875 -3.46875 5.160156 -2.066406 6.734375 -1.171875 C 8.316406 -0.285156 10.117188 0.15625 12.140625 0.15625 C 12.367188 0.15625 12.597656 0.15625 12.828125 0.15625 C 13.066406 0.15625 13.304688 0.132812 13.546875 0.09375 C 16.492188 -0.132812 18.820312 -1.144531 20.53125 -2.9375 C 22.25 -4.738281 23.359375 -7.097656 23.859375 -10.015625 Z M 17.921875 -11.28125 "/></g></g></g><g fill="#545454" fill-opacity="1"><g transform="translate(90.058029, 59.603234)"><g><path d="M 18.625 3.078125 C 18.289062 3.109375 17.945312 3.128906 17.59375 3.140625 C 17.238281 3.160156 16.878906 3.171875 16.515625 3.171875 C 13.492188 3.171875 10.820312 2.550781 8.5 1.3125 C 6.1875 0.0703125 4.382812 -1.742188 3.09375 -4.140625 C 1.800781 -6.546875 1.15625 -9.445312 1.15625 -12.84375 C 1.15625 -15.488281 1.597656 -17.941406 2.484375 -20.203125 C 3.378906 -22.472656 4.738281 -24.347656 6.5625 -25.828125 C 8.394531 -27.304688 10.703125 -28.160156 13.484375 -28.390625 C 13.753906 -28.421875 14.023438 -28.4375 14.296875 -28.4375 C 14.566406 -28.4375 14.835938 -28.4375 15.109375 -28.4375 C 17.253906 -28.4375 19.273438 -28.050781 21.171875 -27.28125 C 23.066406 -26.507812 24.742188 -25.421875 26.203125 -24.015625 C 27.660156 -22.609375 28.804688 -20.921875 29.640625 -18.953125 C 30.484375 -16.992188 30.90625 -14.820312 30.90625 -12.4375 C 30.90625 -9.78125 30.460938 -7.316406 29.578125 -5.046875 C 28.691406 -2.785156 27.34375 -0.9375 25.53125 0.5 C 23.71875 1.945312 21.414062 2.804688 18.625 3.078125 Z M 13.546875 0.046875 C 16.222656 -0.179688 18.4375 -1 20.1875 -2.40625 C 21.9375 -3.820312 23.238281 -5.628906 24.09375 -7.828125 C 24.945312 -10.023438 25.375 -12.398438 25.375 -14.953125 C 25.375 -17.398438 24.992188 -19.597656 24.234375 -21.546875 C 23.484375 -23.492188 22.328125 -25.046875 20.765625 -26.203125 C 19.203125 -27.359375 17.210938 -27.9375 14.796875 -27.9375 C 14.597656 -27.9375 14.394531 -27.9375 14.1875 -27.9375 C 13.988281 -27.9375 13.773438 -27.921875 13.546875 -27.890625 C 10.859375 -27.648438 8.632812 -26.816406 6.875 -25.390625 C 5.113281 -23.972656 3.800781 -22.171875 2.9375 -19.984375 C 2.082031 -17.804688 1.65625 -15.425781 1.65625 -12.84375 C 1.65625 -10.425781 2.039062 -8.234375 2.8125 -6.265625 C 3.59375 -4.304688 4.769531 -2.753906 6.34375 -1.609375 C 7.914062 -0.472656 9.894531 0.09375 12.28125 0.09375 C 12.488281 0.09375 12.691406 0.09375 12.890625 0.09375 C 13.085938 0.09375 13.304688 0.078125 13.546875 0.046875 Z M 13.09375 -6.890625 C 11.851562 -6.890625 10.882812 -7.425781 10.1875 -8.5 C 9.5 -9.582031 9.15625 -11.242188 9.15625 -13.484375 C 9.15625 -15.835938 9.539062 -17.609375 10.3125 -18.796875 C 11.09375 -19.992188 12.171875 -20.660156 13.546875 -20.796875 L 14 -20.796875 C 15.238281 -20.796875 16.191406 -20.265625 16.859375 -19.203125 C 17.535156 -18.148438 17.875 -16.515625 17.875 -14.296875 C 17.875 -11.953125 17.492188 -10.164062 16.734375 -8.9375 C 15.984375 -7.707031 14.921875 -7.023438 13.546875 -6.890625 Z M 15 -7.859375 C 16.582031 -8.722656 17.375 -10.867188 17.375 -14.296875 C 17.375 -15.472656 17.269531 -16.476562 17.0625 -17.3125 C 16.1875 -17.175781 15.570312 -16.578125 15.21875 -15.515625 C 14.875 -14.460938 14.703125 -12.945312 14.703125 -10.96875 C 14.703125 -9.757812 14.800781 -8.722656 15 -7.859375 Z M 15 -7.859375 "/></g></g></g><g fill="#545454" fill-opacity="1"><g transform="translate(119.911358, 59.603234)"><g><path d="M 21.34375 -15.5 C 23.320312 -14.53125 24.921875 -13.320312 26.140625 -11.875 C 27.367188 -10.4375 27.984375 -8.757812 27.984375 -6.84375 C 27.984375 -3.988281 27.085938 -1.695312 25.296875 0.03125 C 23.503906 1.757812 20.8125 2.773438 17.21875 3.078125 C 16.914062 3.109375 16.613281 3.128906 16.3125 3.140625 C 16.007812 3.160156 15.707031 3.171875 15.40625 3.171875 C 11.78125 3.171875 8.679688 2.265625 6.109375 0.453125 C 3.546875 -1.359375 1.726562 -3.859375 0.65625 -7.046875 L 7.09375 -10.96875 C 5.351562 -11.78125 4.03125 -12.78125 3.125 -13.96875 C 2.21875 -15.15625 1.765625 -16.675781 1.765625 -18.53125 L 1.765625 -18.671875 C 1.796875 -20.347656 2.210938 -21.890625 3.015625 -23.296875 C 3.828125 -24.710938 4.988281 -25.878906 6.5 -26.796875 C 8.007812 -27.722656 9.800781 -28.269531 11.875 -28.4375 C 12.144531 -28.476562 12.40625 -28.5 12.65625 -28.5 C 12.90625 -28.5 13.148438 -28.5 13.390625 -28.5 C 14.929688 -28.5 16.488281 -28.285156 18.0625 -27.859375 C 19.644531 -27.441406 21.125 -26.820312 22.5 -26 C 23.875 -25.175781 25.015625 -24.132812 25.921875 -22.875 C 26.828125 -21.625 27.382812 -20.15625 27.59375 -18.46875 Z M 11.6875 -6.546875 C 10.570312 -6.546875 9.601562 -6.914062 8.78125 -7.65625 C 7.957031 -8.394531 7.363281 -9.285156 7 -10.328125 L 1.3125 -6.796875 C 2.820312 -2.203125 5.941406 0.09375 10.671875 0.09375 C 10.910156 0.09375 11.15625 0.09375 11.40625 0.09375 C 11.65625 0.09375 11.898438 0.078125 12.140625 0.046875 C 15.554688 -0.222656 18.128906 -1.171875 19.859375 -2.796875 C 21.585938 -4.421875 22.453125 -6.609375 22.453125 -9.359375 C 22.453125 -11.773438 21.851562 -13.578125 20.65625 -14.765625 C 19.46875 -15.960938 17.378906 -16.832031 14.390625 -17.375 L 11.78125 -17.828125 C 10.875 -17.992188 10.160156 -18.1875 9.640625 -18.40625 C 9.117188 -18.625 8.859375 -19.035156 8.859375 -19.640625 L 8.859375 -19.78125 C 8.929688 -20.320312 9.21875 -20.773438 9.71875 -21.140625 C 10.21875 -21.515625 10.972656 -21.734375 11.984375 -21.796875 L 12.390625 -21.796875 C 13.359375 -21.796875 14.203125 -21.5 14.921875 -20.90625 C 15.648438 -20.320312 16.128906 -19.546875 16.359375 -18.578125 L 21.953125 -21.25 C 21.515625 -23.394531 20.554688 -25.050781 19.078125 -26.21875 C 17.597656 -27.394531 15.671875 -27.984375 13.296875 -27.984375 C 13.054688 -27.984375 12.828125 -27.984375 12.609375 -27.984375 C 12.390625 -27.984375 12.164062 -27.96875 11.9375 -27.9375 C 9.957031 -27.769531 8.234375 -27.25 6.765625 -26.375 C 5.304688 -25.507812 4.191406 -24.410156 3.421875 -23.078125 C 2.648438 -21.753906 2.265625 -20.285156 2.265625 -18.671875 C 2.265625 -16.421875 2.851562 -14.71875 4.03125 -13.5625 C 5.207031 -12.40625 7.066406 -11.644531 9.609375 -11.28125 L 12.484375 -10.875 C 13.554688 -10.738281 14.335938 -10.46875 14.828125 -10.0625 C 15.316406 -9.664062 15.5625 -9.179688 15.5625 -8.609375 C 15.5625 -7.972656 15.273438 -7.492188 14.703125 -7.171875 C 14.128906 -6.859375 13.238281 -6.648438 12.03125 -6.546875 Z M 15.8125 -18.875 C 15.707031 -18.90625 15.535156 -18.921875 15.296875 -18.921875 C 14.867188 -18.921875 14.46875 -18.800781 14.09375 -18.5625 C 13.726562 -18.332031 13.492188 -18.132812 13.390625 -17.96875 C 14.265625 -17.832031 15.113281 -17.65625 15.9375 -17.4375 C 16.757812 -17.21875 17.539062 -16.976562 18.28125 -16.71875 L 16.015625 -17.875 Z M 12.28125 -8.5625 C 12.382812 -8.320312 12.484375 -8.078125 12.578125 -7.828125 C 12.679688 -7.578125 12.800781 -7.351562 12.9375 -7.15625 C 14.144531 -7.320312 14.832031 -7.671875 15 -8.203125 C 15 -8.203125 14.941406 -8.269531 14.828125 -8.40625 C 14.710938 -8.539062 14.585938 -8.625 14.453125 -8.65625 C 13.410156 -8.925781 12.4375 -9.175781 11.53125 -9.40625 C 10.625 -9.644531 9.785156 -9.898438 9.015625 -10.171875 Z M 12.28125 -8.5625 "/></g></g></g><g fill="#545454" fill-opacity="1"><g transform="translate(146.844753, 59.603234)"><g><path d="M 22 2.359375 C 21.226562 2.398438 20.476562 2.441406 19.75 2.484375 C 19.03125 2.535156 18.335938 2.5625 17.671875 2.5625 C 12.898438 2.5625 9.375 1.691406 7.09375 -0.046875 C 4.8125 -1.796875 3.671875 -4.664062 3.671875 -8.65625 L 3.671875 -18.28125 L 0.453125 -19.890625 L 0.453125 -27.484375 L 3.671875 -27.734375 L 3.671875 -35.953125 L 11.828125 -36.703125 L 16.859375 -34.1875 L 16.859375 -28.390625 L 21.046875 -26.328125 L 21.046875 -18.734375 L 16.859375 -18.375 L 16.859375 -8.25 L 18.578125 -8.40625 L 23.609375 -5.890625 Z M 17.921875 -7.796875 C 17.179688 -7.734375 16.535156 -7.675781 15.984375 -7.625 C 15.429688 -7.570312 14.921875 -7.546875 14.453125 -7.546875 C 13.035156 -7.546875 12.160156 -7.796875 11.828125 -8.296875 C 11.492188 -8.804688 11.328125 -9.679688 11.328125 -10.921875 L 11.328125 -21.34375 L 15.5 -21.703125 L 15.5 -28.296875 L 11.328125 -27.9375 L 11.328125 -36.140625 L 4.171875 -35.5 L 4.171875 -27.28125 L 0.953125 -27.03125 L 0.953125 -20.4375 L 4.171875 -20.6875 L 4.171875 -8.65625 C 4.171875 -6.644531 4.421875 -5.035156 4.921875 -3.828125 C 5.429688 -2.617188 6.296875 -1.742188 7.515625 -1.203125 C 8.742188 -0.671875 10.453125 -0.40625 12.640625 -0.40625 C 13.203125 -0.40625 13.800781 -0.421875 14.4375 -0.453125 C 15.082031 -0.484375 15.773438 -0.535156 16.515625 -0.609375 Z M 17.921875 -7.796875 "/></g></g></g><g fill="#545454" fill-opacity="1"><g transform="translate(168.794106, 59.603234)"><g><path d="M 19.640625 1.40625 C 19.265625 1.738281 18.679688 2.054688 17.890625 2.359375 C 17.109375 2.660156 16.265625 2.847656 15.359375 2.921875 C 15.191406 2.953125 15.003906 2.96875 14.796875 2.96875 C 14.597656 2.96875 14.414062 2.96875 14.25 2.96875 C 12.90625 2.96875 11.535156 2.789062 10.140625 2.4375 C 8.753906 2.082031 7.472656 1.523438 6.296875 0.765625 C 5.117188 0.015625 4.164062 -0.96875 3.4375 -2.1875 C 2.71875 -3.414062 2.359375 -4.882812 2.359375 -6.59375 L 2.359375 -27.1875 L 10.578125 -27.890625 L 15.109375 -25.671875 L 15.109375 -8.90625 C 15.273438 -9.070312 15.429688 -9.179688 15.578125 -9.234375 C 15.734375 -9.285156 15.878906 -9.429688 16.015625 -9.671875 L 16.015625 -27.890625 L 24.171875 -28.59375 L 29.203125 -26.078125 L 29.203125 1.609375 L 21.453125 2.265625 Z M 16.515625 -27.4375 L 16.515625 -9.5625 C 16.179688 -8.925781 15.734375 -8.414062 15.171875 -8.03125 C 14.617188 -7.644531 13.875 -7.398438 12.9375 -7.296875 L 12.6875 -7.296875 C 11.976562 -7.296875 11.363281 -7.53125 10.84375 -8 C 10.320312 -8.46875 10.0625 -9.273438 10.0625 -10.421875 L 10.0625 -27.34375 L 2.875 -26.734375 L 2.875 -6.59375 C 2.875 -4.28125 3.507812 -2.601562 4.78125 -1.5625 C 6.0625 -0.519531 7.640625 0 9.515625 0 L 10.46875 0 C 12.082031 -0.164062 13.46875 -0.675781 14.625 -1.53125 C 15.78125 -2.382812 16.492188 -3.4375 16.765625 -4.6875 L 16.921875 -4.625 L 16.921875 -0.75 L 23.65625 -1.359375 L 23.65625 -28.046875 Z M 16.515625 -27.4375 "/></g></g></g><g fill="#545454" fill-opacity="1"><g transform="translate(198.144004, 59.603234)"><g><path d="M 21 1.0625 C 20.457031 1.5 19.820312 1.882812 19.09375 2.21875 C 18.375 2.550781 17.53125 2.75 16.5625 2.8125 C 16.289062 2.851562 16.003906 2.875 15.703125 2.875 C 15.398438 2.875 15.113281 2.875 14.84375 2.875 C 12.164062 2.875 9.789062 2.3125 7.71875 1.1875 C 5.65625 0.0625 4.046875 -1.691406 2.890625 -4.078125 C 1.734375 -6.460938 1.15625 -9.550781 1.15625 -13.34375 C 1.15625 -18.101562 2.066406 -21.773438 3.890625 -24.359375 C 5.722656 -26.953125 8.300781 -28.398438 11.625 -28.703125 C 11.757812 -28.703125 11.882812 -28.707031 12 -28.71875 C 12.125 -28.738281 12.253906 -28.75 12.390625 -28.75 C 13.328125 -28.75 14.128906 -28.644531 14.796875 -28.4375 C 15.472656 -28.238281 16.078125 -28.054688 16.609375 -27.890625 L 16.609375 -39.0625 L 24.8125 -39.765625 L 29.859375 -37.25 L 29.859375 1.0625 L 22.15625 1.65625 Z M 17.109375 -38.609375 L 17.109375 -26.03125 L 16.96875 -25.984375 C 16.726562 -26.648438 16.207031 -27.191406 15.40625 -27.609375 C 14.601562 -28.035156 13.597656 -28.25 12.390625 -28.25 C 12.285156 -28.25 12.171875 -28.238281 12.046875 -28.21875 C 11.929688 -28.195312 11.8125 -28.1875 11.6875 -28.1875 C 8.488281 -27.882812 6.015625 -26.484375 4.265625 -23.984375 C 2.523438 -21.484375 1.65625 -17.9375 1.65625 -13.34375 C 1.65625 -8.914062 2.46875 -5.597656 4.09375 -3.390625 C 5.726562 -1.191406 7.921875 -0.09375 10.671875 -0.09375 C 10.835938 -0.09375 10.992188 -0.09375 11.140625 -0.09375 C 11.296875 -0.09375 11.441406 -0.113281 11.578125 -0.15625 C 13.148438 -0.320312 14.421875 -0.816406 15.390625 -1.640625 C 16.367188 -2.460938 17.0625 -3.394531 17.46875 -4.4375 L 17.625 -4.375 L 17.625 -1.359375 L 24.3125 -1.90625 L 24.3125 -39.21875 Z M 12.890625 -6.796875 C 11.816406 -6.796875 10.898438 -7.359375 10.140625 -8.484375 C 9.390625 -9.609375 9.015625 -11.445312 9.015625 -14 C 9.015625 -16.550781 9.363281 -18.394531 10.0625 -19.53125 C 10.769531 -20.675781 11.847656 -21.316406 13.296875 -21.453125 L 13.75 -21.453125 C 14.613281 -21.453125 15.347656 -21.234375 15.953125 -20.796875 C 16.554688 -20.359375 16.941406 -19.785156 17.109375 -19.078125 L 17.109375 -12.140625 C 17.109375 -10.628906 16.75 -9.382812 16.03125 -8.40625 C 15.3125 -7.4375 14.363281 -6.898438 13.1875 -6.796875 Z M 16.609375 -17.875 C 15.867188 -17.769531 15.335938 -17.226562 15.015625 -16.25 C 14.703125 -15.28125 14.546875 -13.691406 14.546875 -11.484375 C 14.546875 -10.773438 14.5625 -10.109375 14.59375 -9.484375 C 14.632812 -8.867188 14.738281 -8.359375 14.90625 -7.953125 C 16.039062 -8.890625 16.609375 -10.285156 16.609375 -12.140625 Z M 16.609375 -17.875 "/></g></g></g><g clip-path="url(#7d2a8c6bba)"><g fill="#545454" fill-opacity="1"><g transform="translate(228.148369, 59.603234)"><g><path d="M 0.5 4.984375 C 1.976562 3.710938 3.335938 2.394531 4.578125 1.03125 C 5.816406 -0.320312 6.828125 -1.570312 7.609375 -2.71875 L -0.75 -27.078125 L 8.203125 -27.890625 L 13.234375 -25.375 L 14.796875 -20.140625 C 15.097656 -21.484375 15.359375 -22.757812 15.578125 -23.96875 C 15.796875 -25.175781 16.023438 -26.515625 16.265625 -27.984375 L 24.5625 -28.75 L 29.609375 -26.234375 C 28.703125 -20.753906 27.539062 -15.765625 26.125 -11.265625 C 24.71875 -6.773438 22.890625 -2.609375 20.640625 1.234375 C 18.390625 5.078125 15.570312 8.757812 12.1875 12.28125 L 7.15625 9.765625 Z M 7.046875 9.0625 C 10.335938 5.675781 13.070312 2.113281 15.25 -1.625 C 17.4375 -5.375 19.21875 -9.429688 20.59375 -13.796875 C 21.96875 -18.160156 23.070312 -22.941406 23.90625 -28.140625 L 16.65625 -27.484375 C 16.226562 -24.429688 15.691406 -21.535156 15.046875 -18.796875 C 14.410156 -16.066406 13.640625 -13.457031 12.734375 -10.96875 L 7.796875 -27.34375 L -0.046875 -26.625 L 8.15625 -2.625 C 7.382812 -1.445312 6.367188 -0.160156 5.109375 1.234375 C 3.847656 2.628906 2.582031 3.863281 1.3125 4.9375 Z M 7.046875 9.0625 "/></g></g></g></g></svg>